<svg width="215" height="34" viewBox="0 0 215 34" fill="none" xmlns="http://www.w3.org/2000/svg">
<path d="M49.744 6.12C50.9573 6.12 52.0307 6.29733 52.964 6.652C53.916 7.00667 54.812 7.53867 55.652 8.248L53.468 10.852C52.8893 10.404 52.32 10.068 51.76 9.844C51.2 9.62 50.6027 9.508 49.968 9.508C48.6613 9.508 47.6253 10.0587 46.86 11.16C46.1133 12.2613 45.74 13.96 45.74 16.256C45.74 18.5147 46.1133 20.1947 46.86 21.296C47.6253 22.3787 48.68 22.92 50.024 22.92C50.7333 22.92 51.3773 22.7893 51.956 22.528C52.5347 22.248 53.16 21.856 53.832 21.352L55.876 23.984C55.148 24.712 54.2613 25.3093 53.216 25.776C52.1893 26.2427 51.0507 26.476 49.8 26.476C48.008 26.476 46.4493 26.084 45.124 25.3C43.7987 24.516 42.7627 23.3587 42.016 21.828C41.288 20.2787 40.924 18.4213 40.924 16.256C40.924 14.1467 41.2973 12.3267 42.044 10.796C42.8093 9.26533 43.8547 8.108 45.18 7.324C46.524 6.52133 48.0453 6.12 49.744 6.12ZM66.276 10.656C67.564 10.656 68.572 11.048 69.3 11.832C70.028 12.616 70.392 13.7173 70.392 15.136V26H65.968V15.892C65.968 15.1453 65.8467 14.632 65.604 14.352C65.3614 14.0533 65.016 13.904 64.568 13.904C63.672 13.904 62.8134 14.5387 61.992 15.808V26H57.568V5.224L61.992 4.776V12.728C62.608 12.0373 63.2614 11.524 63.952 11.188C64.6427 10.8333 65.4174 10.656 66.276 10.656ZM85.5442 21.688C85.5442 22.248 85.6189 22.6587 85.7682 22.92C85.9362 23.1813 86.1975 23.3773 86.5522 23.508L85.6282 26.392C84.7135 26.3173 83.9669 26.1213 83.3882 25.804C82.8095 25.468 82.3615 24.9453 82.0442 24.236C81.0735 25.7293 79.5802 26.476 77.5642 26.476C76.0895 26.476 74.9135 26.0467 74.0362 25.188C73.1589 24.3293 72.7202 23.2093 72.7202 21.828C72.7202 20.204 73.3175 18.9627 74.5122 18.104C75.7069 17.2453 77.4335 16.816 79.6922 16.816H81.2042V16.172C81.2042 15.2947 81.0175 14.6973 80.6442 14.38C80.2709 14.044 79.6175 13.876 78.6842 13.876C78.1989 13.876 77.6109 13.9507 76.9202 14.1C76.2295 14.2307 75.5202 14.4173 74.7922 14.66L73.7842 11.748C74.7175 11.3933 75.6695 11.1227 76.6402 10.936C77.6295 10.7493 78.5442 10.656 79.3842 10.656C81.5122 10.656 83.0709 11.0947 84.0602 11.972C85.0495 12.8493 85.5442 14.1653 85.5442 15.92V21.688ZM78.8522 23.312C79.8602 23.312 80.6442 22.836 81.2042 21.884V19.252H80.1122C79.1042 19.252 78.3482 19.4293 77.8442 19.784C77.3589 20.1387 77.1162 20.6893 77.1162 21.436C77.1162 22.0333 77.2655 22.5 77.5642 22.836C77.8815 23.1533 78.3109 23.312 78.8522 23.312ZM97.132 10.712C97.6734 10.712 98.168 10.7773 98.616 10.908L97.916 15.192C97.356 15.0613 96.908 14.996 96.572 14.996C95.6947 14.996 95.0227 15.304 94.556 15.92C94.108 16.5173 93.7534 17.4227 93.492 18.636V26H89.068V11.132H92.932L93.296 14.016C93.632 12.9893 94.136 12.1867 94.808 11.608C95.4987 11.0107 96.2734 10.712 97.132 10.712ZM104.254 26.476C102.966 26.476 101.958 26.112 101.23 25.384C100.521 24.6373 100.166 23.5827 100.166 22.22V5.224L104.59 4.748V22.052C104.59 22.668 104.842 22.976 105.346 22.976C105.608 22.976 105.85 22.9293 106.074 22.836L106.942 25.972C106.14 26.308 105.244 26.476 104.254 26.476ZM113.043 11.132V26H108.619V11.132H113.043ZM110.803 3.292C111.568 3.292 112.193 3.53467 112.679 4.02C113.183 4.48667 113.435 5.084 113.435 5.812C113.435 6.54 113.183 7.14667 112.679 7.632C112.193 8.09867 111.568 8.332 110.803 8.332C110.037 8.332 109.412 8.09867 108.927 7.632C108.441 7.14667 108.199 6.54 108.199 5.812C108.199 5.084 108.441 4.48667 108.927 4.02C109.412 3.53467 110.037 3.292 110.803 3.292ZM129.485 18.272C129.485 18.888 129.457 19.42 129.401 19.868H120.189C120.338 21.1187 120.693 21.996 121.253 22.5C121.813 23.004 122.588 23.256 123.577 23.256C124.174 23.256 124.753 23.1533 125.313 22.948C125.873 22.724 126.48 22.388 127.133 21.94L128.953 24.404C127.217 25.7853 125.285 26.476 123.157 26.476C120.749 26.476 118.901 25.7667 117.613 24.348C116.325 22.9293 115.681 21.0253 115.681 18.636C115.681 17.124 115.952 15.7707 116.493 14.576C117.034 13.3627 117.828 12.4107 118.873 11.72C119.918 11.0107 121.169 10.656 122.625 10.656C124.772 10.656 126.452 11.328 127.665 12.672C128.878 14.016 129.485 15.8827 129.485 18.272ZM125.145 17.012C125.108 14.7347 124.305 13.596 122.737 13.596C121.972 13.596 121.374 13.876 120.945 14.436C120.534 14.996 120.282 15.92 120.189 17.208H125.145V17.012ZM138.699 26V6.596H150.263L149.787 9.872H143.291V15.024H148.947V18.3H143.291V26H138.699ZM155.934 26.476C154.646 26.476 153.638 26.112 152.91 25.384C152.201 24.6373 151.846 23.5827 151.846 22.22V5.224L156.27 4.748V22.052C156.27 22.668 156.522 22.976 157.026 22.976C157.287 22.976 157.53 22.9293 157.754 22.836L158.622 25.972C157.819 26.308 156.923 26.476 155.934 26.476ZM166.602 10.656C168.879 10.656 170.662 11.356 171.95 12.756C173.238 14.1373 173.882 16.0787 173.882 18.58C173.882 20.1667 173.583 21.5573 172.986 22.752C172.407 23.928 171.567 24.8427 170.466 25.496C169.383 26.1493 168.095 26.476 166.602 26.476C164.343 26.476 162.56 25.7853 161.254 24.404C159.966 23.004 159.322 21.0533 159.322 18.552C159.322 16.9653 159.611 15.584 160.19 14.408C160.787 13.2133 161.627 12.2893 162.71 11.636C163.811 10.9827 165.108 10.656 166.602 10.656ZM166.602 13.904C165.706 13.904 165.034 14.2867 164.586 15.052C164.138 15.7987 163.914 16.9653 163.914 18.552C163.914 20.176 164.128 21.3613 164.558 22.108C165.006 22.8547 165.687 23.228 166.602 23.228C167.498 23.228 168.17 22.8547 168.618 22.108C169.066 21.3427 169.29 20.1667 169.29 18.58C169.29 16.956 169.066 15.7707 168.618 15.024C168.188 14.2773 167.516 13.904 166.602 13.904ZM184.577 10.712C185.119 10.712 185.613 10.7773 186.061 10.908L185.361 15.192C184.801 15.0613 184.353 14.996 184.017 14.996C183.14 14.996 182.468 15.304 182.001 15.92C181.553 16.5173 181.199 17.4227 180.937 18.636V26H176.513V11.132H180.377L180.741 14.016C181.077 12.9893 181.581 12.1867 182.253 11.608C182.944 11.0107 183.719 10.712 184.577 10.712ZM199.868 18.272C199.868 18.888 199.84 19.42 199.784 19.868H190.572C190.721 21.1187 191.076 21.996 191.636 22.5C192.196 23.004 192.971 23.256 193.96 23.256C194.557 23.256 195.136 23.1533 195.696 22.948C196.256 22.724 196.863 22.388 197.516 21.94L199.336 24.404C197.6 25.7853 195.668 26.476 193.54 26.476C191.132 26.476 189.284 25.7667 187.996 24.348C186.708 22.9293 186.064 21.0253 186.064 18.636C186.064 17.124 186.335 15.7707 186.876 14.576C187.417 13.3627 188.211 12.4107 189.256 11.72C190.301 11.0107 191.552 10.656 193.008 10.656C195.155 10.656 196.835 11.328 198.048 12.672C199.261 14.016 199.868 15.8827 199.868 18.272ZM195.528 17.012C195.491 14.7347 194.688 13.596 193.12 13.596C192.355 13.596 191.757 13.876 191.328 14.436C190.917 14.996 190.665 15.92 190.572 17.208H195.528V17.012ZM207.589 10.656C208.653 10.656 209.652 10.8147 210.585 11.132C211.519 11.4493 212.34 11.8973 213.049 12.476L211.425 14.968C210.212 14.2027 208.989 13.82 207.757 13.82C207.179 13.82 206.731 13.9227 206.413 14.128C206.115 14.3147 205.965 14.5853 205.965 14.94C205.965 15.22 206.031 15.4533 206.161 15.64C206.311 15.808 206.6 15.9853 207.029 16.172C207.459 16.3587 208.121 16.5827 209.017 16.844C210.567 17.292 211.715 17.88 212.461 18.608C213.227 19.3173 213.609 20.3067 213.609 21.576C213.609 22.584 213.32 23.4613 212.741 24.208C212.163 24.936 211.369 25.496 210.361 25.888C209.353 26.28 208.233 26.476 207.001 26.476C205.751 26.476 204.584 26.28 203.501 25.888C202.437 25.496 201.532 24.9547 200.785 24.264L202.941 21.856C204.192 22.8267 205.508 23.312 206.889 23.312C207.561 23.312 208.084 23.1907 208.457 22.948C208.849 22.7053 209.045 22.36 209.045 21.912C209.045 21.5573 208.971 21.2773 208.821 21.072C208.672 20.8667 208.383 20.68 207.953 20.512C207.524 20.3253 206.843 20.1013 205.909 19.84C204.435 19.4107 203.333 18.8133 202.605 18.048C201.877 17.2827 201.513 16.3307 201.513 15.192C201.513 14.3333 201.756 13.568 202.241 12.896C202.745 12.2053 203.455 11.664 204.369 11.272C205.303 10.8613 206.376 10.656 207.589 10.656Z" fill="#05237D"/>
<path d="M0 4.32064C0 6.70687 1.92543 8.64129 4.30058 8.64129C6.67572 8.64129 8.60115 6.70687 8.60115 4.32064C8.60115 1.93442 6.67572 0 4.30058 0C1.92543 0 0 1.93442 0 4.32064Z" fill="#05237D"/>
<path d="M26.6994 10.2615C24.3243 10.2615 22.3988 8.32711 22.3988 5.94088C22.3988 3.55466 24.3243 1.62024 26.6994 1.62024C29.0746 1.62024 31 3.55466 31 5.94088C31 8.32711 29.0746 10.2615 26.6994 10.2615Z" fill="#05237D"/>
<path d="M3.56149 27.2188C2.80387 25.7529 2.34105 24.1515 2.19944 22.506L27.1443 20.3393C27.2859 21.9849 27.1035 23.6423 26.6075 25.2171C26.1115 26.7918 25.3117 28.2529 24.2536 29.5171C23.1956 30.7813 21.9001 31.8237 20.441 32.5849C18.982 33.346 17.388 33.811 15.7501 33.9533C14.1122 34.0955 12.4625 33.9123 10.8951 33.414C9.32766 32.9157 7.87328 32.1121 6.61498 31.0491C5.35669 29.9862 4.31911 28.6846 3.56149 27.2188Z" fill="#05237D"/>
<path d="M12.3001 16.65L15.0201 2.04926L20.3745 3.05606L17.6545 17.6568L12.3001 16.65Z" fill="#05237D"/>
</svg>
