<svg xmlns="http://www.w3.org/2000/svg" xmlns:xlink="http://www.w3.org/1999/xlink" width="585.395" height="575.6" viewBox="0 0 585.395 575.6">
  <defs>
    <linearGradient id="linear-gradient" y1="0.5" x2="1" y2="0.5" gradientUnits="objectBoundingBox">
      <stop offset="0" stop-color="#af0680"/>
      <stop offset="0.234" stop-color="#ae077d"/>
      <stop offset="0.422" stop-color="#ac0873"/>
      <stop offset="0.593" stop-color="#a80b62"/>
      <stop offset="0.755" stop-color="#a2104a"/>
      <stop offset="0.909" stop-color="#9a152c"/>
      <stop offset="1" stop-color="#951916"/>
    </linearGradient>
    <linearGradient id="linear-gradient-2" y1="0.5" x2="1" y2="0.5" gradientUnits="objectBoundingBox">
      <stop offset="0" stop-color="#3fd400"/>
      <stop offset="0.29" stop-color="#3cd600"/>
      <stop offset="0.523" stop-color="#32dd00"/>
      <stop offset="0.736" stop-color="#21e901"/>
      <stop offset="0.936" stop-color="#09f902"/>
      <stop offset="1" stop-color="#00ff02"/>
    </linearGradient>
  </defs>
  <g id="Layer_2" transform="translate(-190.04 110.835)">
    <g id="Group_8" data-name="Group 8" transform="translate(151 -192.17)">
      <g id="Group_7" data-name="Group 7">
        <g id="Group_6" data-name="Group 6" transform="translate(50 81.335)">
          <path id="Path_7" data-name="Path 7" d="M773.663,529.73q.2-2.97.338-5.97c.01-.31.031-.63.041-.94.113-2.46.195-4.92.256-7.4v-.07c.051-2.44.092-4.88.092-7.33v-.6c0-.81-.021-1.62-.031-2.44-.01-1.15-.021-2.3-.041-3.44,0-.18,0-.37-.01-.55h-.01C771.625,374.67,697.167,273.4,605.691,273.4c-45.943,0-87.585,25.55-118.006,66.98-30.42-41.43-72.063-66.98-118.006-66.98-88.763,0-161.512,95.34-168.188,216.41-.01,0-.031-.01-.041-.01-.1,1.97-.164,3.96-.225,5.94,0,.11-.01.23-.01.34q-.077,2.28-.123,4.56c-.041,1.84-.061,3.68-.072,5.53,0,.42-.02.83-.02,1.25v.6c0,2.45.041,4.9.092,7.33v.07c.051,2.48.143,4.94.256,7.4.01.31.031.63.041.94q.138,3,.338,5.97c.041.69.082,1.37.133,2.06.041.51.082,1.01.123,1.52C213.768,691.76,332.91,820.66,487.7,849,642.48,820.66,761.622,691.76,773.417,533.3c.041-.51.082-1.01.123-1.52C773.581,531.1,773.622,530.41,773.663,529.73Z" transform="translate(-201 -273.4)" fill="url(#linear-gradient)"/>
        </g>
      </g>
      <path id="Path_8" data-name="Path 8" d="M775.256,526.92c0-.12,0-.24.01-.37a4.469,4.469,0,0,1-.154-.9,61.091,61.091,0,0,1,.113-2.88,5.813,5.813,0,0,1,.072-1.63l-.021-1.04a5.5,5.5,0,0,1-.02-1.23c-.031-.1-.051-.2-.082-.3.031-.72.072-1.44.092-2.17v-.07c.072-2.43.133-4.88.154-7.33v-.33a2.377,2.377,0,0,1,.01-.27c.01-.81,0-1.62,0-2.44,0-1.15,0-2.3-.01-3.44v-.55h-.01C774,380.45,707.783,283.07,622.922,275c79.427,57.14,118.838,158.66,108.287,267.78-52.869,23.49-141.5,38.9-241.913,38.9-147.381,0-269.361-33.18-290.157-76.41-5.936,7.1-9.1,14.54-9.1,22.2,0,49.44,131.314,89.53,293.3,89.53,100.97,0,190.016-15.58,242.783-39.28a386.4,386.4,0,0,1-28.6,88.16c-34.448,74.5-90.111,132.18-152.4,167.12,122.942-44.05,215.11-156.83,228.558-292.87.328-.7.6-1.41.87-2.11a39.358,39.358,0,0,0,.409-3.02,5.871,5.871,0,0,1,.1-.95c.01-.24.041-.47.072-.7a4.608,4.608,0,0,1,.031-.53,5.968,5.968,0,0,1,.082-1.76,6.161,6.161,0,0,1,.01-1.15,5.6,5.6,0,0,1,0-1.98A8.31,8.31,0,0,1,775.256,526.92Z" transform="translate(-151 -192.065)" fill="url(#linear-gradient-2)"/>
    </g>
  </g>
</svg>
